<?xml version="1.0" encoding="UTF-8"?>
<svg width="62px" height="57px" viewBox="0 0 62 57" version="1.1" xmlns="http://www.w3.org/2000/svg" xmlns:xlink="http://www.w3.org/1999/xlink">
    <!-- Generator: Sketch 52.5 (67469) - http://www.bohemiancoding.com/sketch -->
    <title>Global/Icons/ipad4</title>
    <desc>Created with Sketch.</desc>
    <defs>
        <linearGradient x1="78.4453125%" y1="0%" x2="0%" y2="100%" id="linearGradient-1">
            <stop stop-color="#F2B031" offset="0%"></stop>
            <stop stop-color="#F04C23" offset="100%"></stop>
        </linearGradient>
        <path d="M6.16666692,56.34375 L6.16666667,65.625 L13.8750002,65.625 L13.8750002,53.53125 L13.875,53.5312703 C13.9175119,50.1778422 14.9545469,46.9303328 16.8298611,44.2781453 C10.5604166,46.3593785 6.16666667,50.9718672 6.16666667,56.3437422 L6.16666692,56.34375 Z M37.0000001,34.6875 L36.9999996,34.6875 C43.3857885,34.6875003 48.5624996,29.0211 48.5624996,22.03125 C48.5624999,15.0414 43.3857885,9.375 36.9999996,9.375 C30.6142108,9.37499969 25.4374997,15.0414 25.4374997,22.03125 L25.4374996,22.0311989 C25.4516042,29.0146364 30.6200176,34.6720082 36.9999481,34.6875051 L37.0000001,34.6875 Z M20.2986113,22.03125 L20.2986105,22.031391 C20.3055692,20.803912 20.41739,19.579836 20.6326126,18.375141 C19.6993133,18.015501 18.7185409,17.8254379 17.7291661,17.8124891 L17.7291658,17.8124891 C12.7625067,17.7863456 8.7168394,22.172286 8.69296926,27.6087923 C8.66908507,33.0452704 12.6759936,37.473636 17.6426783,37.4997641 C20.268522,37.513586 22.7687199,36.2704907 24.4868046,34.0968641 L24.486805,34.0968646 C21.7948752,30.7675115 20.3056509,26.4772115 20.2986106,22.0312396 L20.2986113,22.03125 Z M57.1701389,44.278125 C59.0454454,46.9303265 60.0824757,50.1778219 60.125,53.53125 L60.125,65.625 L67.8333333,65.625 L67.8333333,56.34375 C67.8333333,50.971875 63.4395834,46.359375 57.1701389,44.278125 Z M65.2638889,27.65625 L65.2638892,27.6562068 C65.3059827,22.2664443 61.3484413,17.8598474 56.4244608,17.8137505 C55.3832937,17.804008 54.3486144,17.9939626 53.3673358,18.3750018 L53.3673365,18.3750056 C53.582567,19.5796894 53.6943959,20.8037653 53.7013643,22.0312556 L53.7013644,22.0311773 C53.6943524,26.4771492 52.2051255,30.7674773 49.5132214,34.0968305 L49.5132217,34.0968309 C52.7524432,38.1975403 58.4153703,38.6475403 62.1616973,35.1018946 C64.1367034,33.2326931 65.269389,30.5141165 65.2638904,27.6562509 L65.2638889,27.65625 Z M37.0000001,40.3125 C27.0819446,40.3125 19.0138891,46.246875 19.0138891,53.53125 L19.0138891,65.625 L54.9861112,65.625 L54.9861112,53.53125 C54.9861112,46.246875 46.9180557,40.3125 37.0000001,40.3125 Z" id="path-2"></path>
    </defs>
    <g id="Desktop" stroke="none" stroke-width="1" fill="none" fill-rule="evenodd">
        <g id="6-Event-Support-Staff" transform="translate(-828.000000, -1487.000000)">
            <g id="Stacked-Group" transform="translate(298.000000, 1208.000000)">
                <g id="Benefits" transform="translate(160.000000, 270.000000)">
                    <g id="Event-Support/Features" transform="translate(290.000000, 0.000000)">
                        <g id="Icon/Team" transform="translate(74.000000, 0.000000)">
                            <rect id="24pt-Bounding-Box" x="0" y="0" width="74" height="75"></rect>
                            <mask id="mask-3" fill="white">
                                <use xlink:href="#path-2"></use>
                            </mask>
                            <use id="Fill" fill="url(#linearGradient-1)" fill-rule="evenodd" xlink:href="#path-2"></use>
                        </g>
                    </g>
                </g>
            </g>
        </g>
    </g>
</svg>