<?xml version="1.0" encoding="UTF-8"?>
<svg width="62px" height="51px" viewBox="0 0 62 51" version="1.1" xmlns="http://www.w3.org/2000/svg" xmlns:xlink="http://www.w3.org/1999/xlink">
    <!-- Generator: Sketch 52.5 (67469) - http://www.bohemiancoding.com/sketch -->
    <title>Global/Icons/ipad3</title>
    <desc>Created with Sketch.</desc>
    <defs>
        <linearGradient x1="78.4453125%" y1="0%" x2="0%" y2="100%" id="linearGradient-1">
            <stop stop-color="#F2B031" offset="0%"></stop>
            <stop stop-color="#F04C23" offset="100%"></stop>
        </linearGradient>
        <path d="M48.2189842,44.1239637 L48.2189839,44.1239634 C41.5095359,38.9559604 32.5131945,38.9559604 25.8037464,44.1239639 L25.8037462,44.1239641 C24.0388942,45.4095277 23.5707238,48.0007517 24.7580561,49.9116093 C25.9453885,51.8224724 28.3386143,52.3293758 30.1034612,51.0438122 C30.1516288,51.0087257 30.1990575,50.9724645 30.2457109,50.9350564 L30.2457106,50.9350566 C34.2970658,47.818998 39.7256614,47.818998 43.7770166,50.9350561 L43.7770164,50.935056 C45.5418685,52.2206196 47.9350815,51.7137162 49.1224215,49.802853 C50.2719663,47.952806 49.8739559,45.4509573 48.2189796,44.1239628 L48.2189842,44.1239637 Z M36.9985274,54.1598927 L36.9985273,54.1598927 C34.8714496,54.1598928 33.1471119,56.0268897 33.1471119,58.3299464 C33.147112,60.633003 34.8714496,62.5 36.9985273,62.5 C39.1256049,62.4999999 40.8499426,60.633003 40.8499426,58.3299464 L40.8499426,58.3299466 C40.8499426,56.0268899 39.1256049,54.1598929 36.9985273,54.1598929 L36.9985274,54.1598927 Z M66.5003692,24.5803123 L66.5003684,24.5803116 C49.6259311,8.47322922 24.3196672,8.47322922 7.44533263,24.5803131 L7.44533277,24.580313 C5.8688021,26.1217622 5.73141441,28.749755 7.13721954,30.4739888 L7.13721928,30.4739885 C8.55357728,32.189265 10.9812399,32.3504487 12.580553,30.8353931 L12.5805547,30.8353915 C26.5392908,17.5840453 47.4063363,17.5840453 61.3651494,30.8353947 L61.3651491,30.8353944 C62.0745336,31.5094474 62.9890034,31.875795 63.9327594,31.8640076 C66.0452529,31.9087592 67.7912613,30.0908424 67.8325998,27.8035708 C67.8549317,26.5677476 67.366368,25.3856986 66.5003644,24.580314 L66.5003692,24.5803123 Z M16.6630542,34.3938385 L16.6630538,34.3938389 C15.0337434,35.8503775 14.8034621,38.4612258 16.148705,40.2253253 C16.1574824,40.2368357 16.1663172,40.2482946 16.1752089,40.2597016 C17.5204518,42.0238094 19.9318024,42.2731452 21.5611052,40.8166039 C21.5717359,40.8071004 21.582319,40.7975349 21.5928542,40.7879075 L21.592855,40.7879067 C30.5822126,32.6991147 43.6202293,32.6991147 52.6095869,40.7879083 C54.170545,42.3523984 56.6073047,42.2505713 58.052253,40.5604722 C59.4971988,38.8703717 59.4031524,36.2320121 57.8421955,34.6675192 C57.7456447,34.57075 57.6445779,34.4794008 57.5393921,34.3938313 L57.5393907,34.39383 C45.6977006,23.7181869 28.5048539,23.7181869 16.6630355,34.3938327 L16.6630542,34.3938385 Z" id="path-2"></path>
    </defs>
    <g id="Desktop" stroke="none" stroke-width="1" fill="none" fill-rule="evenodd">
        <g id="6-Event-Support-Staff" transform="translate(-550.000000, -1494.000000)">
            <g id="Stacked-Group" transform="translate(298.000000, 1208.000000)">
                <g id="Benefits" transform="translate(158.000000, 270.000000)">
                    <g id="Event-Support/Features" transform="translate(0.000000, 4.000000)">
                        <g id="Icon/WiFi" transform="translate(88.064378, 0.000000)">
                            <rect id="24pt-Bounding-Box" x="0" y="0" width="74" height="75"></rect>
                            <mask id="mask-3" fill="white">
                                <use xlink:href="#path-2"></use>
                            </mask>
                            <use id="Fill" fill="url(#linearGradient-1)" fill-rule="evenodd" xlink:href="#path-2"></use>
                        </g>
                    </g>
                </g>
            </g>
        </g>
    </g>
</svg>