<svg xmlns="http://www.w3.org/2000/svg" width="30" height="30" viewBox="0 0 30 30">
    <defs>
        <linearGradient id="a" x1="0%" x2="95.257%" y1="100%" y2="0%">
            <stop offset="0%" stop-color="#F04C23"/>
            <stop offset="100%" stop-color="#F2B031"/>
        </linearGradient>
    </defs>
    <path fill="url(#a)" fill-rule="evenodd" d="M4.399 4.399C7.332 1.466 10.865 0 15 0c4.135 0 7.668 1.466 10.601 4.399C28.534 7.332 30 10.865 30 15c0 4.135-1.466 7.668-4.399 10.601C22.668 28.534 19.135 30 15 30c-4.135 0-7.668-1.466-10.601-4.399C1.466 22.668 0 19.135 0 15c0-4.135 1.466-7.668 4.399-10.601zm18.284 12.109v-3.016h-6.175V7.317h-3.016v6.175H7.317v3.016h6.175v6.175h3.016v-6.175h6.175z"/>
</svg>
