<?xml version="1.0" encoding="UTF-8"?>
<svg width="46px" height="46px" viewBox="0 0 46 46" version="1.1" xmlns="http://www.w3.org/2000/svg" xmlns:xlink="http://www.w3.org/1999/xlink">
    <!-- Generator: Sketch 52.5 (67469) - http://www.bohemiancoding.com/sketch -->
    <title>Icon/Event Mgmt</title>
    <desc>Created with Sketch.</desc>
    <defs>
        <linearGradient x1="78.4453125%" y1="0%" x2="0%" y2="100%" id="linearGradient-1">
            <stop stop-color="#F2B031" offset="0%"></stop>
            <stop stop-color="#F04C23" offset="100%"></stop>
        </linearGradient>
    </defs>
    <g id="Desktop" stroke="none" stroke-width="1" fill="none" fill-rule="evenodd">
        <g id="3-Features" transform="translate(-698.000000, -440.000000)" fill="url(#linearGradient-1)">
            <g id="Hero">
                <g id="Hero-Content" transform="translate(204.000000, 184.000000)">
                    <g id="Feature-Icons-Group" transform="translate(0.000000, 204.000000)">
                        <g id="Feature-Icons" transform="translate(64.000000, 48.000000)">
                            <g id="Feature-Icons-Row-1">
                                <g id="Components/Features/Icons-Copy" transform="translate(362.000000, 0.000000)">
                                    <g id="Icon/Events" transform="translate(64.000000, 0.000000)">
                                        <g id="election-event-on-a-calendar-with-star-symbol" transform="translate(4.500000, 4.500000)">
                                            <path d="M17.4494758,28.9278 L16.7545161,33.02244 C16.6597984,33.58224 16.8913306,34.14636 17.3533065,34.48044 C17.8160081,34.8138 18.4304032,34.85844 18.9359274,34.59564 L22.6469758,32.67396 L26.3580242,34.596 C26.5775806,34.70904 26.8181855,34.76592 27.05625,34.76592 C27.3679839,34.76592 27.6789919,34.66908 27.941371,34.4808 C28.4037097,34.14672 28.6359677,33.5826 28.5405242,33.0228 L27.8462903,28.92816 L30.8344355,26.02044 C31.2430645,25.62336 31.3885887,25.0308 31.2133065,24.49152 C31.0372984,23.9526 30.56625,23.55804 30.0008468,23.47524 L25.860121,22.86612 L23.9951613,19.14768 C23.7422177,18.64008 23.2181855,18.3186 22.6466129,18.3186 C22.076129,18.3186 21.5524597,18.64008 21.2973387,19.14768 L19.4341935,22.86612 L15.2934677,23.47488 C14.7269758,23.55768 14.2581048,23.95224 14.0817339,24.49116 C13.9053629,25.03044 14.0505242,25.62372 14.459879,26.02008 L17.4494758,28.9278 Z" id="Path"></path>
                                            <path d="M40.4430242,4.77684 L35.7016935,4.77684 L35.7016935,2.16792 C35.7016935,0.97056 34.7233065,0 33.5159274,0 L33.1693548,0 C31.9623387,0 30.9843145,0.97056 30.9843145,2.16792 L30.9843145,4.77684 L14.2555645,4.77684 L14.2555645,2.16792 C14.2555645,0.97056 13.2771774,0 12.0705242,0 L11.7235887,0 C10.5165726,0 9.53854839,0.97056 9.53854839,2.16792 L9.53854839,4.77684 L4.85237903,4.77684 C2.37266129,4.77684 0.354556452,6.77808 0.354556452,9.23868 L0.354556452,40.4712 C0.354556452,42.93036 2.37266129,44.93304 4.85237903,44.93304 L40.4433871,44.93304 C42.9227419,44.93304 44.9412097,42.93072 44.9412097,40.4712 L44.9412097,9.23868 C44.9408468,6.77808 42.922379,4.77684 40.4430242,4.77684 Z M39.8562097,39.88908 L5.43919355,39.88908 L5.43919355,15.57648 L39.8562097,15.57648 L39.8562097,39.88908 Z" id="Shape"></path>
                                        </g>
                                    </g>
                                </g>
                            </g>
                        </g>
                    </g>
                </g>
            </g>
        </g>
    </g>
</svg>