<svg xmlns="http://www.w3.org/2000/svg" xmlns:xlink="http://www.w3.org/1999/xlink" width="108" height="23" viewBox="0 0 108 23">
    <defs>
        <path id="a" d="M.203.106h4.523V6.85H.203z"/>
    </defs>
    <g fill="none" fill-rule="evenodd">
        <path fill="#01435C" d="M35.33 13.29c0 3.118-1.806 4.992-4.314 4.992-1.305 0-2.428-.631-3.171-1.598v.572c0 .494-.422.888-.903.888a.892.892 0 0 1-.903-.888V5.674c0-.493.401-.888.903-.888.481 0 .903.395.903.888v4.203a3.922 3.922 0 0 1 3.17-1.598c2.53 0 4.315 1.953 4.315 5.011m-1.866 0c0-1.992-1.124-3.433-2.93-3.433-1.104 0-2.207.651-2.689 1.42v4.046c.482.77 1.585 1.38 2.69 1.38 1.805 0 2.929-1.42 2.929-3.413M37.358 5.477c0-.632.542-1.125 1.164-1.125.642 0 1.164.493 1.164 1.125 0 .631-.522 1.144-1.164 1.144-.622 0-1.164-.513-1.164-1.144m.28 11.78V9.304c0-.494.402-.888.904-.888.481 0 .903.394.903.888v7.951c0 .493-.422.888-.923.888a.887.887 0 0 1-.883-.888M51.024 5.674v11.582a.892.892 0 0 1-.903.888c-.482 0-.903-.394-.903-.888v-.572c-.743.967-1.887 1.598-3.17 1.598-2.53 0-4.335-1.874-4.335-4.992 0-3.058 1.806-5.011 4.334-5.011 1.244 0 2.388.572 3.17 1.618V5.674c0-.493.422-.888.904-.888.501 0 .903.395.903.888m-1.806 9.649v-4.065c-.502-.77-1.585-1.4-2.69-1.4-1.805 0-2.929 1.44-2.929 3.432 0 1.973 1.124 3.414 2.93 3.414 1.104 0 2.187-.612 2.689-1.381"/>
        <path fill="#F04C23" d="M59.012 9.206c0 .414-.321.77-.944.849-.802.078-1.926.65-2.348 1.36v5.841a.904.904 0 0 1-.902.888.892.892 0 0 1-.903-.888V9.304c0-.492.4-.887.882-.887.502 0 .923.395.923.887v.672c.542-.711 1.305-1.303 2.007-1.52.22-.06.362-.099.522-.099.522 0 .763.395.763.849M60.096 13.27c0-2.742 1.886-4.991 4.896-4.991 3.03 0 4.897 2.249 4.897 4.991 0 2.763-1.866 5.012-4.897 5.012-3.01 0-4.896-2.25-4.896-5.012m7.906 0c0-1.795-1.063-3.413-3.01-3.413-1.926 0-3.01 1.618-3.01 3.413 0 1.816 1.084 3.434 3.01 3.434 1.947 0 3.01-1.618 3.01-3.434M76.512 8.279c1.385 0 2.348.433 3.09 1.105.16.138.28.375.28.592 0 .453-.36.808-.802.808a.823.823 0 0 1-.541-.197c-.562-.513-1.184-.73-1.947-.73-1.907 0-3.13 1.44-3.13 3.413 0 1.974 1.223 3.434 3.13 3.434.763 0 1.385-.217 1.947-.73a.77.77 0 0 1 .521-.197c.462 0 .823.355.823.789a.84.84 0 0 1-.281.611c-.742.671-1.705 1.105-3.09 1.105-2.93 0-4.937-2.15-4.937-5.012 0-2.86 2.007-4.991 4.937-4.991M90.379 17.256a.875.875 0 0 1-.883.888c-.28 0-.522-.078-.702-.296l-3.352-3.887-1.505 1.381v1.914c0 .494-.421.888-.923.888a.888.888 0 0 1-.883-.888V5.674c0-.493.402-.888.903-.888.482 0 .903.395.903.888v7.676l4.877-4.716c.16-.158.361-.217.582-.217.461 0 .822.394.822.828 0 .198-.1.415-.26.573l-3.191 3.058 3.391 3.788c.14.159.221.395.221.592M96.34 8.279c2.91 0 4.716 2.229 4.716 4.735 0 .533-.381.849-1.064.849H93.39c.14 1.618 1.345 2.96 3.291 2.96a4.2 4.2 0 0 0 2.408-.77c.1-.08.241-.099.402-.099.401 0 .722.316.722.71 0 .257-.12.454-.321.592-.963.691-2.107 1.026-3.391 1.026-2.89 0-5.017-2.012-5.017-5.012 0-2.762 2.027-4.991 4.856-4.991m-2.97 4.301h5.92c-.04-1.263-.903-2.841-2.95-2.841-1.946 0-2.87 1.539-2.97 2.841M107.84 17.335c0 .336-.181.573-.462.67-.34.16-.803.277-1.384.277-1.525 0-2.308-.848-2.308-2.348v-5.86h-.923c-.422 0-.803-.355-.803-.789 0-.415.381-.77.803-.77h.923V6.7c0-.493.401-.888.903-.888.481 0 .903.395.903.888v1.815h1.264c.442 0 .803.355.803.77 0 .434-.361.789-.803.789h-1.264v5.465c0 .672.321 1.165.943 1.165.341 0 .462-.119.642-.119.462 0 .763.316.763.75M7.624 20.07a.672.672 0 0 1-.286-.064.656.656 0 0 1-.366-.461c-.035-.174-.533-2.608-1.023-5.182-2.504.91-4.87 1.801-4.912 1.817a.675.675 0 0 1-.602-.063.652.652 0 0 1-.3-.516c-.012-.245-.271-6.013 1.417-8.908 1.304-2.238 5.177-4.298 6.333-4.876 1.154-.578 5.027-2.4 6.412-1.63 1.382.788 1.739 4.996 1.815 6.267.077 1.273.226 5.6-1.078 7.838-1.688 2.895-6.881 5.59-7.102 5.703a.677.677 0 0 1-.308.075m-.408-6.163c.335 1.763.68 3.494.882 4.5 1.48-.848 4.647-2.82 5.782-4.766 1.723-2.956.736-11.625-.25-12.322C12.536.843 4.43 4.387 2.705 7.343c-1.13 1.938-1.263 5.586-1.26 7.284.967-.361 2.594-.966 4.259-1.57-.27-1.461-.513-2.852-.64-3.776-.191-1.395.538-2.6 1.774-2.93l.103-.027c1.157-.308 2.378.39 2.861 1.58a2.846 2.846 0 0 1 1.551.195c.649.282 1.103.791 1.28 1.433l.028.102c.354 1.284-.408 2.605-1.734 3.007-.858.26-2.244.74-3.71 1.266m.296-6.35a.867.867 0 0 0-.223.03l-.104.027c-.673.18-.888.879-.804 1.493.117.85.338 2.128.59 3.495 1.403-.5 2.719-.954 3.563-1.21.638-.194 1.008-.815.843-1.415l-.028-.102c-.09-.326-.34-.495-.535-.58a1.542 1.542 0 0 0-.995-.06l-.298.079a.674.674 0 0 1-.505-.064.655.655 0 0 1-.311-.396l-.081-.293c-.144-.523-.59-1.004-1.112-1.004"/>
        <g transform="translate(.498 16.085)">
            <mask id="b" fill="#fff">
                <use xlink:href="#a"/>
            </mask>
            <path fill="#F04C23" d="M.867 6.851a.67.67 0 0 1-.331-.087.648.648 0 0 1-.244-.894L3.485.433a.67.67 0 0 1 .908-.24c.318.18.427.58.244.893L1.444 6.524a.667.667 0 0 1-.577.327" mask="url(#b)"/>
        </g>
        <path fill="#F04C23" d="M4.143 22.155a.667.667 0 0 1-.332-.088.648.648 0 0 1-.243-.893l1.406-2.396a.671.671 0 0 1 .909-.24c.318.18.427.581.243.893L4.72 21.828a.667.667 0 0 1-.576.327M.664 20.18a.668.668 0 0 1-.331-.087.648.648 0 0 1-.244-.894l1.407-2.396a.671.671 0 0 1 .909-.239c.318.18.426.58.243.893L1.24 19.853a.666.666 0 0 1-.577.327"/>
    </g>
</svg>
