<svg xmlns="http://www.w3.org/2000/svg" xmlns:xlink="http://www.w3.org/1999/xlink" width="434" height="94" viewBox="0 0 434 94">
    <defs>
        <path id="a" d="M387.145 33.835c11.692 0 18.949 9.11 18.949 19.354 0 2.176-1.53 3.467-4.273 3.467H375.29c.566 6.613 5.403 12.096 13.225 12.096 3.307 0 6.774-1.048 9.678-3.145.402-.322.968-.402 1.612-.402a2.89 2.89 0 0 1 2.903 2.9c0 1.05-.484 1.857-1.29 2.42-3.871 2.824-8.467 4.195-13.628 4.195-11.613 0-20.161-8.225-20.161-20.484 0-11.29 8.145-20.401 19.516-20.401m-11.935 17.58c.403-5.322 4.113-11.613 11.935-11.613 8.226 0 11.692 6.452 11.854 11.613h-23.79zm58.147 19.434c0 1.37-.727 2.338-1.856 2.74-1.37.647-3.225 1.13-5.563 1.13-6.13 0-9.274-3.468-9.274-9.597v-23.95h-3.71c-1.693 0-3.225-1.45-3.225-3.225 0-1.694 1.532-3.146 3.225-3.146h3.71v-7.419a3.615 3.615 0 0 1 3.629-3.629c1.935 0 3.628 1.614 3.628 3.63V34.8H429c1.775 0 3.227 1.452 3.227 3.146A3.235 3.235 0 0 1 429 41.172h-5.08V63.51c0 2.743 1.29 4.76 3.79 4.76 1.37 0 1.855-.485 2.58-.485 1.855 0 3.066 1.29 3.066 3.065zM141.975 54.317c0 12.742-7.257 20.402-17.338 20.402-5.242 0-9.757-2.58-12.741-6.532v2.339c0 2.016-1.694 3.629-3.63 3.629a3.614 3.614 0 0 1-3.628-3.629V23.189a3.613 3.613 0 0 1 3.628-3.628c1.936 0 3.63 1.612 3.63 3.628v17.177c3.064-4.193 7.742-6.532 12.74-6.532 10.162 0 17.339 7.983 17.339 20.483zm-7.5 0c0-8.144-4.515-14.031-11.773-14.031-4.436 0-8.871 2.66-10.806 5.806v16.531c1.935 3.145 6.37 5.645 10.806 5.645 7.258 0 11.773-5.807 11.773-13.951zm15.648-31.935c0-2.58 2.177-4.596 4.677-4.596 2.581 0 4.678 2.016 4.678 4.596a4.681 4.681 0 0 1-4.678 4.678c-2.5 0-4.677-2.097-4.677-4.678zm1.13 48.144V38.027a3.613 3.613 0 0 1 3.628-3.628c1.935 0 3.63 1.612 3.63 3.628v32.5c0 2.014-1.695 3.627-3.71 3.627-1.937 0-3.549-1.613-3.549-3.628zM205.04 23.19v47.337a3.614 3.614 0 0 1-3.629 3.63c-1.935 0-3.628-1.614-3.628-3.63v-2.339c-2.984 3.952-7.58 6.532-12.742 6.532-10.16 0-17.418-7.66-17.418-20.402 0-12.5 7.257-20.482 17.418-20.482 5 0 9.596 2.338 12.742 6.613V23.19c0-2.016 1.693-3.628 3.628-3.628a3.613 3.613 0 0 1 3.63 3.628zm-7.257 39.434V46.011c-2.017-3.145-6.37-5.725-10.806-5.725-7.258 0-11.774 5.886-11.774 14.031 0 8.063 4.516 13.95 11.774 13.95 4.435 0 8.79-2.499 10.806-5.644zm39.357-25c0 1.695-1.29 3.147-3.791 3.47-3.226.322-7.742 2.66-9.436 5.563v23.87c0 2.017-1.692 3.629-3.627 3.629a3.613 3.613 0 0 1-3.63-3.63V38.028c0-2.014 1.613-3.628 3.547-3.628 2.018 0 3.71 1.614 3.71 3.628v2.743c2.178-2.904 5.243-5.323 8.065-6.21.887-.242 1.452-.403 2.097-.403 2.097 0 3.065 1.613 3.065 3.467zm4.356 16.613c0-11.21 7.581-20.401 19.676-20.401 12.178 0 19.677 9.192 19.677 20.4 0 11.29-7.499 20.484-19.677 20.484-12.095 0-19.676-9.193-19.676-20.483zm31.771 0c0-7.34-4.273-13.95-12.095-13.95-7.742 0-12.095 6.61-12.095 13.95 0 7.42 4.353 14.03 12.095 14.03 7.822 0 12.095-6.61 12.095-14.03zm34.197-20.401c5.565 0 9.435 1.773 12.418 4.516.646.564 1.129 1.532 1.129 2.419 0 1.855-1.45 3.306-3.225 3.306a3.274 3.274 0 0 1-2.177-.806c-2.257-2.096-4.757-2.983-7.822-2.983-7.662 0-12.581 5.886-12.581 13.949 0 8.065 4.919 14.033 12.581 14.033 3.065 0 5.565-.888 7.822-2.984.483-.484 1.29-.806 2.096-.806 1.856 0 3.306 1.45 3.306 3.225 0 .968-.483 1.936-1.129 2.5-2.983 2.74-6.853 4.516-12.418 4.516-11.773 0-19.838-8.79-19.838-20.484 0-11.692 8.065-20.401 19.838-20.401zm55.726 36.691c0 2.017-1.531 3.629-3.55 3.629-1.127 0-2.095-.322-2.821-1.21L343.35 57.058l-6.048 5.645v7.823c0 2.017-1.692 3.629-3.71 3.629-1.933 0-3.547-1.612-3.547-3.629V23.189a3.614 3.614 0 0 1 3.629-3.628c1.936 0 3.628 1.612 3.628 3.628v31.37L356.9 35.286c.644-.645 1.452-.887 2.338-.887 1.854 0 3.305 1.613 3.305 3.386 0 .807-.403 1.694-1.047 2.34l-12.822 12.499 13.628 15.482c.565.647.887 1.613.887 2.42z"/>
        <path id="c" d="M2.67 82.476a2.673 2.673 0 0 1-2.311-4.01l5.653-9.792a2.672 2.672 0 0 1 4.629 2.672l-5.654 9.792a2.669 2.669 0 0 1-2.317 1.338zm13.977 8.069a2.673 2.673 0 0 1-2.311-4.009l5.653-9.793a2.672 2.672 0 0 1 4.63 2.672l-5.655 9.793a2.671 2.671 0 0 1-2.317 1.337zM5.485 93.739a2.674 2.674 0 0 1-2.312-4.009l12.831-22.223a2.67 2.67 0 0 1 3.65-.978 2.67 2.67 0 0 1 .978 3.649L7.802 92.402a2.67 2.67 0 0 1-2.317 1.337zm25.152-11.714a2.672 2.672 0 0 1-2.62-2.146c-.142-.71-2.142-10.659-4.11-21.177-10.062 3.715-19.573 7.36-19.74 7.424a2.672 2.672 0 0 1-3.626-2.367C.493 62.76-.547 39.185 6.235 27.352 11.476 18.209 27.04 9.788 31.686 7.425c4.637-2.36 20.201-9.811 25.765-6.66 5.554 3.22 6.99 20.417 7.296 25.611.308 5.203.907 22.89-4.334 32.033-6.782 11.832-27.652 22.847-28.537 23.311a2.683 2.683 0 0 1-1.239.305zm-1.639-25.189a1782.733 1782.733 0 0 0 3.542 18.389c5.951-3.464 18.677-11.518 23.237-19.474C62.7 43.671 58.734 8.24 54.773 5.39c-4.398-1.946-36.977 12.541-43.902 24.62-4.539 7.919-5.076 22.831-5.062 29.77a1854.988 1854.988 0 0 1 17.112-6.414c-1.088-5.975-2.062-11.658-2.572-15.434-.769-5.701 2.162-10.624 7.128-11.972l.417-.113c4.648-1.26 9.556 1.589 11.495 6.455 2.137-.324 4.312-.051 6.234.8 2.605 1.152 4.431 3.232 5.143 5.856l.113.415c1.423 5.249-1.639 10.646-6.97 12.291-3.445 1.062-9.016 3.026-14.91 5.172zm1.192-25.952c-.294 0-.593.038-.897.12l-.416.114c-2.703.733-3.57 3.592-3.23 6.1.468 3.474 1.358 8.7 2.37 14.285 5.638-2.045 10.926-3.9 14.317-4.946 2.564-.791 4.053-3.331 3.388-5.782l-.113-.416c-.362-1.334-1.368-2.025-2.149-2.37-1.189-.527-2.647-.616-4-.249l-1.197.325a2.668 2.668 0 0 1-3.279-1.88l-.325-1.198c-.579-2.136-2.374-4.103-4.469-4.103z"/>
    </defs>
    <g fill="none" fill-rule="evenodd">
        <mask id="b" fill="#fff">
            <use xlink:href="#a"/>
        </mask>
        <use fill="#FFF" xlink:href="#a"/>
        <path fill="#FFF" d="M0 0h434v94H0z" mask="url(#b)"/>
        <mask id="d" fill="#fff">
            <use xlink:href="#c"/>
        </mask>
        <use fill="#FFF" xlink:href="#c"/>
        <path fill="#F04C23" d="M0 0h85v94H0z" mask="url(#d)"/>
    </g>
</svg>
