<svg xmlns="http://www.w3.org/2000/svg" xmlns:xlink="http://www.w3.org/1999/xlink" width="130" height="27" viewBox="0 0 130 27">
    <defs>
        <path id="a" d="M84.965 4.718c3.502 0 5.676 2.617 5.676 5.56 0 .625-.458.995-1.28.995h-7.947c.17 1.9 1.618 3.475 3.961 3.475.99 0 2.03-.301 2.9-.904.12-.092.29-.115.482-.115.483 0 .87.37.87.833 0 .302-.145.533-.387.695-1.16.811-2.536 1.205-4.082 1.205-3.478 0-6.039-2.362-6.039-5.884 0-3.243 2.44-5.86 5.846-5.86m-3.575 5.05c.12-1.529 1.232-3.336 3.575-3.336 2.464 0 3.502 1.854 3.55 3.336H81.39zm17.417 5.582a.79.79 0 0 1-.556.787c-.41.186-.966.325-1.666.325-1.836 0-2.778-.996-2.778-2.757V6.826h-1.111c-.507 0-.966-.417-.966-.926 0-.487.459-.904.966-.904h1.111v-2.13c0-.58.483-1.043 1.087-1.043.58 0 1.087.463 1.087 1.042v2.131h1.521c.532 0 .967.417.967.904 0 .51-.435.926-.967.926h-1.521v6.416c0 .788.387 1.367 1.135 1.367.41 0 .556-.14.773-.14.556 0 .918.371.918.881zm-87.28-4.748c0 3.66-2.174 5.86-5.193 5.86-1.57 0-2.923-.741-3.817-1.876v.671c0 .58-.507 1.043-1.087 1.043-.604 0-1.087-.463-1.087-1.043V1.661C.343 1.08.826.619 1.43.619c.58 0 1.087.463 1.087 1.042v4.933a4.761 4.761 0 0 1 3.817-1.876c3.043 0 5.193 2.293 5.193 5.884zm-2.247 0c0-2.34-1.352-4.03-3.526-4.03-1.329 0-2.657.764-3.237 1.667v4.748c.58.904 1.908 1.622 3.237 1.622 2.174 0 3.526-1.668 3.526-4.007zm4.688-9.173c0-.741.652-1.32 1.4-1.32.774 0 1.402.579 1.402 1.32 0 .741-.628 1.344-1.401 1.344-.75 0-1.401-.603-1.401-1.344zm.338 13.829V5.923c0-.58.483-1.042 1.087-1.042.58 0 1.087.463 1.087 1.042v9.335c0 .578-.507 1.042-1.111 1.042-.58 0-1.063-.464-1.063-1.042zM30.418 1.66v13.596c0 .58-.484 1.043-1.087 1.043-.58 0-1.087-.463-1.087-1.043v-.671c-.894 1.135-2.271 1.876-3.817 1.876-3.044 0-5.217-2.2-5.217-5.86 0-3.59 2.173-5.883 5.217-5.883 1.498 0 2.874.671 3.817 1.9V1.66c0-.58.507-1.042 1.087-1.042.603 0 1.087.463 1.087 1.042zm-2.174 11.326V8.216c-.604-.903-1.909-1.644-3.237-1.644-2.174 0-3.527 1.69-3.527 4.03 0 2.316 1.353 4.007 3.527 4.007 1.328 0 2.633-.718 3.237-1.622zm11.789-7.18c0 .486-.387.903-1.136.996-.966.093-2.319.765-2.826 1.598v6.856c0 .58-.507 1.043-1.087 1.043-.604 0-1.087-.463-1.087-1.043V5.923c0-.579.483-1.043 1.062-1.043.605 0 1.112.464 1.112 1.043v.787c.652-.834 1.57-1.529 2.415-1.783.266-.07.435-.116.629-.116.628 0 .918.463.918.996zm1.305 4.771c0-3.22 2.27-5.86 5.893-5.86 3.648 0 5.894 2.64 5.894 5.86 0 3.243-2.246 5.884-5.894 5.884-3.623 0-5.893-2.64-5.893-5.884zm9.516 0c0-2.108-1.28-4.007-3.623-4.007-2.319 0-3.623 1.9-3.623 4.007 0 2.132 1.304 4.03 3.623 4.03 2.343 0 3.623-1.898 3.623-4.03zm10.244-5.86c1.666 0 2.826.51 3.72 1.298.193.162.337.44.337.694 0 .533-.434.95-.966.95-.265 0-.483-.092-.652-.231-.676-.603-1.425-.857-2.343-.857-2.295 0-3.768 1.69-3.768 4.006 0 2.317 1.473 4.031 3.768 4.031.918 0 1.667-.255 2.343-.857a.94.94 0 0 1 .628-.232c.556 0 .99.417.99.927a.977.977 0 0 1-.338.718c-.893.787-2.053 1.297-3.72 1.297-3.526 0-5.942-2.525-5.942-5.884 0-3.358 2.416-5.86 5.943-5.86zm16.692 10.54a1.04 1.04 0 0 1-1.064 1.042c-.337 0-.627-.093-.845-.348l-4.034-4.563-1.812 1.621v2.247c0 .58-.506 1.043-1.11 1.043-.58 0-1.063-.463-1.063-1.043V1.661c0-.58.483-1.042 1.087-1.042.58 0 1.086.463 1.086 1.042v9.01l5.87-5.536c.194-.185.436-.254.701-.254.555 0 .99.463.99.972 0 .232-.12.487-.314.672l-3.84 3.59 4.082 4.447c.17.186.266.464.266.695z"/>
        <path id="c" d="M-30.2 18.69a.82.82 0 0 1-.4-.103.75.75 0 0 1-.293-1.049l1.694-2.812a.82.82 0 0 1 1.093-.281.75.75 0 0 1 .293 1.048l-1.693 2.813a.806.806 0 0 1-.694.384zm4.186 2.317a.819.819 0 0 1-.399-.102.75.75 0 0 1-.293-1.05l1.694-2.812a.82.82 0 0 1 1.093-.28.75.75 0 0 1 .293 1.048l-1.694 2.813a.807.807 0 0 1-.694.383zm-3.343.918a.823.823 0 0 1-.4-.103.751.751 0 0 1-.293-1.049l3.844-6.383a.819.819 0 0 1 1.093-.28.75.75 0 0 1 .293 1.047l-3.843 6.384a.807.807 0 0 1-.694.384zm7.534-3.365a.827.827 0 0 1-.344-.074.774.774 0 0 1-.44-.542c-.043-.204-.642-3.062-1.232-6.083-3.014 1.067-5.863 2.114-5.913 2.133a.83.83 0 0 1-.724-.074.762.762 0 0 1-.362-.606c-.014-.287-.326-7.059 1.706-10.458C-27.562.23-22.9-2.189-21.51-2.867c1.39-.678 6.051-2.818 7.718-1.913 1.664.925 2.093 5.864 2.185 7.356.093 1.495.272 6.575-1.298 9.201-2.031 3.399-8.283 6.562-8.548 6.696a.831.831 0 0 1-.37.087zm-.49-7.235c.402 2.07.817 4.103 1.06 5.282 1.783-.995 5.595-3.308 6.96-5.593 2.074-3.47.886-13.647-.3-14.466C-15.911-4.01-25.67.15-27.743 3.62c-1.36 2.274-1.521 6.558-1.517 8.55a570.842 570.842 0 0 1 5.126-1.841c-.326-1.717-.618-3.349-.77-4.434-.23-1.637.647-3.051 2.135-3.438l.124-.033c1.393-.362 2.863.457 3.444 1.854a3.506 3.506 0 0 1 1.867.23c.78.33 1.327.928 1.54 1.682l.034.12c.427 1.507-.49 3.057-2.087 3.53-1.032.305-2.701.869-4.467 1.485zm.356-7.454c-.088 0-.177.01-.268.034l-.125.033c-.81.21-1.07 1.032-.968 1.752.14.998.407 2.5.71 4.103 1.69-.587 3.273-1.12 4.289-1.42.768-.227 1.214-.957 1.015-1.661l-.034-.12c-.109-.383-.41-.581-.644-.68a1.9 1.9 0 0 0-1.198-.072l-.359.094a.83.83 0 0 1-.607-.075.772.772 0 0 1-.375-.465l-.097-.345c-.174-.613-.711-1.178-1.339-1.178z"/>
    </defs>
    <g fill="none" fill-rule="evenodd" transform="translate(31 5)">
        <mask id="b" fill="#fff">
            <use xlink:href="#a"/>
        </mask>
        <use fill="#FFF" xlink:href="#a"/>
        <path fill="#FFF" d="M-31-5H99v27H-31z" mask="url(#b)"/>
        <mask id="d" fill="#fff">
            <use xlink:href="#c"/>
        </mask>
        <use fill="#FFF" xlink:href="#c"/>
        <path fill="#F04C23" d="M-31-5h25.461v27H-31z" mask="url(#d)"/>
    </g>
</svg>
