<svg xmlns="http://www.w3.org/2000/svg" xmlns:xlink="http://www.w3.org/1999/xlink" width="250" height="150" viewBox="0 0 250 150">
    <defs>
        <path id="a" d="M.133.08h13.249v21.987H.133z"/>
        <path id="c" d="M.15.08h22.733v76.014H.15z"/>
        <path id="e" d="M.029.075h.61v.662h-.61z"/>
    </defs>
    <g fill="none" fill-rule="evenodd">
        <path fill="#7E7E7E" d="M25 107.262c.42-.451.913-.856 1.241-1.367.29-.45.695-.759 1.034-1.186.538.278 1.071.538 1.59.825.768.426 1.657.572 2.399 1.057.437-.027.81.164 1.2.328.355.15.754.154 1.12.315.28.123.648-.056.92.195.544-.052 1.073.117 1.594.197 1.787.275 3.573.097 5.356.121.946.013 1.88-.18 2.809-.443.55-.156 1.091-.31 1.614-.543.571-.255 1.046-.626 1.476-1.081.444-.472.681-1.03.654-1.653-.038-.843-.413-1.533-1.174-1.96-.902-.507-1.848-.875-2.906-.837-.379.013-.699-.23-1.1-.189-.358.037-.766.156-1.1-.145-.03-.028-.108-.009-.163-.003-1.154.128-2.281-.229-3.434-.176-1.035.048-2.057-.277-3.1-.16-.794-.264-1.638-.174-2.446-.338-1.499-.304-3.031-.492-4.406-1.244-1.06-.58-1.846-1.4-2.171-2.587-.342-1.251-.282-2.5.244-3.693.168-.38.445-.715.703-1.046.187-.24.427-.44.643-.657.69-.693 1.34-1.01 2.458-1.52.692-.314 1.396-.536 2.119-.727.404-.106.817-.183 1.23-.252.419-.07.842-.124 1.265-.168.396-.042.79.04 1.191-.149.251-.118.602-.022.907-.022.723 0 1.447-.02 2.168.006.95.034 1.9.106 2.85.162.43.365.98.054 1.469.284.413.195.96.083 1.404.234.953.323 1.947.494 2.88.901.824.36 1.673.666 2.466 1.096.342.185.677.383 1.015.575L48.48 93.96c-.78-.32-1.534-.654-2.305-.938-.58-.214-1.194-.34-1.775-.552-.59-.217-1.202-.337-1.812-.454-.945-.182-1.916-.226-2.857-.38-1.322-.217-2.63-.072-3.94-.105-.377-.01-.773.177-1.181.145-.404-.03-.781.147-1.178.197-.601.076-1.193.323-1.757.572-.378.166-.76.406-1.028.713-.243.278-.496.619-.477 1.05.008.194.001.388.001.567.034.034.064.05.072.074.38 1.14 1.404 1.4 2.368 1.668.789.22 1.626.265 2.436.391.765.12 1.527.017 2.269.146.979.17 1.972.035 2.93.188.682.109 1.35.076 2.02.135.342.03.677.111 1.016.162.34.052.67.005 1.028.132.349.124.777.13 1.171.192 1.069.167 2.919.678 4.12 1.342.51.28 1.023.563 1.429.966.372.37.68.821.943 1.279.19.329.356.725.362 1.095.012.679.475 1.36.021 2.04.082.812-.346 1.461-.654 2.158-.159.36-.4.622-.642.907-.833.977-1.881 1.642-3.048 2.119-.936.382-1.887.71-2.902.861-.76.113-1.528.207-2.277.349-1.208.228-2.406.068-3.606.135-.36.02-.725-.026-1.083.008-1.182.112-2.359-.066-3.512-.212a23.905 23.905 0 0 1-3.755-.77c-1.537-.452-2.89-.897-4.302-1.707-.43-.246-.841-.522-1.268-.772-.085-.05-.204-.044-.307-.064v-.335z"/>
        <g transform="translate(149.103 31.087)">
            <mask id="b" fill="#fff">
                <use xlink:href="#a"/>
            </mask>
            <path fill="#7E7E7E" d="M4.973 12.819c-.132.07-.222.123-.316.167-.709.33-1.244.883-1.64 1.521-.605.977-.956 2.064-.84 3.236.068.685.181 1.377.797 1.84.153.117.276.273.399.396.267.075.55.257.757.193.535-.167 1.16-.172 1.537-.717.156-.225.408-.38.576-.6.272-.353.6-.7.745-1.107.345-.972.42-1.998.349-3.03-.005-.074-.057-.144-.075-.218-.183-.774-.648-1.32-1.394-1.681h-.895zM9.675.081c-.009.213-.094.413-.138.607-.132.589-.301 1.172-.398 1.775-.1.627-.097 1.242-.138 1.863-.015.23-.158.459-.149.684.018.453.123.902.15 1.356.027.473-.089.975.035 1.415.1.35.039.716.16 1.018.13.322.09.635.154.944.153.74.334 1.475.544 2.2.23.795.48 1.583.767 2.36.269.727.562 1.442.846 2.162.53 1.348 1.205 2.627 1.874 3.96-1.174.439-2.31.896-3.532 1.13-.593.113-1.193.216-1.776.346-1.07.24-2.136.165-3.188.107a6.151 6.151 0 0 1-3.329-1.192c-.47-.347-.776-.864-.89-1.464-.134-.704-.232-1.42-.369-2.116-.218-1.105-.19-2.209-.09-3.284.095-1.028.302-2.067.586-3.088.247-.885.568-1.724.947-2.542.37-.8.754-1.596 1.277-2.32.475-.657.947-1.31 1.537-1.872.504-.48.989-.981 1.476-1.479.791-.808 1.733-1.421 2.648-2.069.226-.16.442-.334.662-.501h.334z" mask="url(#b)"/>
        </g>
        <path fill="#7E7E7E" d="M165.066 87.72l.611-.288c-.266-.895-.46-1.764-.781-2.583-.554-1.416-1.077-2.844-1.68-4.242-.667-1.545-1.44-3.035-2.208-4.525-.92-1.786-1.999-3.485-3.124-5.147-.702-1.038-1.522-1.994-2.286-2.989-.56-.73-1.12-1.458-1.77-2.11-.424-.426-.444-1-.547-1.53-.332-1.724-.106-3.472-.188-5.24.643-.25 1.276-.532 1.933-.732.348-.106.618-.422 1.018-.367 1.25-.608 2.522-1.174 3.742-1.838a27.825 27.825 0 0 0 3.484-2.26c1.3-.983 2.41-2.188 3.523-3.375.48-.512.826-1.151 1.277-1.796.255.543.55 1.015.704 1.53.357 1.19.875 2.319 1.231 3.51.379 1.267.899 2.491 1.117 3.806.388.61.4 1.34.613 2.005.215.665.3 1.37.536 2.04.102.289.094.62.159.934.169.823.3 1.652.512 2.47.133.515.117 1.068.185 1.602.036.286.11.567.162.852.052.285-.131.616.166.854.014.011 0 .054.002.082.056.703.104 1.406.17 2.108.041.453.13.902.158 1.355.027.445-.103.93.03 1.331.21.629.125 1.246.136 1.866.022 1.34-.027 2.681.017 4.02.037 1.158-.278 2.289-.196 3.45.02.294-.152.606-.16.935-.01.311.08.618-.126.954-.149.242.044.673-.042.983-.298 1.067-.255 2.2-.654 3.244.112.423-.192.769-.185 1.184h-15.587c-.497-.38-.732-1.026-1.052-1.582-.617-1.072-1.144-2.2-1.661-3.326a28.976 28.976 0 0 1-1.002-2.514c-.377-1.074-.803-2.133-1.038-3.256-.09-.43-.251-.848-.36-1.277-.11-.428-.18-.87-.283-1.299-.11-.463-.266-.938-.183-1.434-.324-.651-.097-1.338-.19-2.093.637.4 1.271.591 1.84.933 1 .599 1.955 1.243 2.849 2.002.714.606 1.396 1.24 2.033 1.918a39.146 39.146 0 0 1 3.03 3.672 78.482 78.482 0 0 1 2.45 3.512c.482.739.89 1.527 1.334 2.29.054.093.132.171.281.361"/>
        <g transform="translate(137.594 43.825)">
            <mask id="d" fill="#fff">
                <use xlink:href="#c"/>
            </mask>
            <path fill="#7E7E7E" d="M8.177.1c-.074.374-.104.764-.23 1.119-.342.961-.54 1.957-.771 2.946-.21.9-.403 1.8-.525 2.72-.106.792-.342 1.567-.312 2.378-.276.454-.072.971-.18 1.437-.25 1.09-.128 2.19-.15 3.285a75.841 75.841 0 0 0 .003 3.351c.023.928.017 1.87.183 2.776.186 1.018.26 2.056.492 3.06.295 1.267.62 2.53.937 3.793.291 1.164.73 2.272 1.063 3.418.194.664.55 1.28.785 1.934.551 1.54 1.403 2.934 2.083 4.412.335.73.796 1.404 1.228 2.086a105.75 105.75 0 0 0 1.732 2.63c.37.549.744 1.098 1.159 1.612.748.926 1.528 1.826 2.298 2.74l-.234.236H9.964l2.019 4.31h8.447a2.92 2.92 0 0 1 .254 1.522c-.028.327.258.586.175.938-.082.348.073.68.144 1.021.067.321-.072.699.035.995.164.457.049.93.17 1.355.125.433.102.853.154 1.277.038.313.166.607.169.938.003.311-.077.62.121.955.147.247-.052.681.052.98.158.456.052.928.17 1.355.128.459.04.934.17 1.354.15.49.002 1.011.173 1.434.19.473.01.936.15 1.363.157.481.037.994.181 1.434.153.466.087.912.144 1.364.015.12.112.23.191.385-.206.264-.396.555-.632.802a53.269 53.269 0 0 1-1.71 1.719c-.37.355-.774.676-1.165 1.01-.392.334-.708.736-1.156 1.029-.563.368-1.019.899-1.54 1.338-.457.387-.94.744-1.5 1.183 0-1.146-.007-2.172.001-3.2.006-.847-.157-1.68-.207-2.525-.048-.815-.137-1.656-.32-2.456-.168-.74-.108-1.532-.476-2.227.086-.712-.336-1.335-.351-2.04-.009-.374-.21-.744-.315-1.118-.225-.8-.407-1.616-.676-2.4-.511-1.49-1.022-2.978-1.596-4.447-.868-2.223-1.981-4.32-3.073-6.43a36.326 36.326 0 0 0-1.895-3.235c-.126-.192-.188-.425-.3-.627-.317-.568-.709-1.102-.956-1.698-.73-1.763-1.722-3.418-2.18-5.293-.624-.981-.66-2.178-1.167-3.202.104-.585-.332-1.045-.355-1.62-.022-.542-.34-1.052-.313-1.621-.285-.287-.03-.723-.23-.989-.263-.349.016-.733-.194-1.101-.157-.276.022-.727-.094-1.047-.225-.62-.04-1.258-.163-1.862C.017 25.474.268 23.981.155 22.5c-.041-.533.162-1.01.186-1.523.024-.481-.153-.987.154-1.443.039-.057.02-.167.003-.247-.105-.527.135-1.013.19-1.521.049-.459.18-.923.281-1.379.125-.562.233-1.133.35-1.7.173-.847.457-1.657.684-2.484.33-1.198.762-2.366 1.219-3.515.485-1.222 1.092-2.398 1.7-3.565.458-.877.973-1.725 1.5-2.566.48-.766.963-1.517 1.553-2.2.06-.068.07-.182.103-.275l.099.02" mask="url(#d)"/>
        </g>
        <path fill="#7E7E7E" d="M122.101 98.881h.836c4.524 0 9.048.002 13.572-.001.592 0 1.177.008 1.767-.15.644-.174 1.244-.422 1.723-.863.472-.434.775-.999.766-1.683-.008-.528-.002-1.057-.002-1.512-.161-.316-.271-.582-.426-.82-.174-.267-.349-.556-.59-.753-.718-.583-1.97-.925-2.698-.924-4.774.004-9.547.002-14.322.002h-.626v6.704zm-4.166-9.997l.226-.227h10.064c2.972 0 5.945.014 8.917-.015.445-.005.838.234 1.264.174.447-.062.847.109 1.264.185.378.07.752.19 1.11.333.382.153.765.323 1.107.548.684.45 1.31.945 1.841 1.616.593.75.783 1.641 1.205 2.441-.112.662.313 1.302.148 1.936-.185.71-.148 1.448-.446 2.157-.237.561-.495 1.101-.854 1.565-.735.95-1.985 1.773-3.114 2.128-.546.171-1.112.28-1.732.432 2.037 2.83 4.228 5.573 6.303 8.43h-4.798l-6.376-8.17h-11.958v8.156h-4.17V88.884zM171.652 107.376l2.22-2.652c.511.24 1.043.44 1.523.726 1.142.683 2.454.926 3.646 1.473.903.025 1.713.538 2.627.506 2.015.529 4.073.299 6.115.325.726.01 1.475-.014 2.176-.18.827-.196 1.688-.342 2.457-.703.699-.327 1.388-.715 1.82-1.442.24-.404.412-.793.405-1.259-.007-.427.106-.908-.237-1.236-.48-.457-.842-1.036-1.578-1.226-.762-.196-1.488-.53-2.3-.48-.453-.26-.965-.08-1.428-.182-.838-.185-1.7-.03-2.513-.187-.794-.154-1.586-.007-2.35-.154-.843-.162-1.69-.058-2.516-.177-.451-.066-.9-.102-1.352-.145-.45-.044-.924-.082-1.34-.193-.826-.22-1.722-.18-2.484-.638-.842.04-1.401-.653-2.156-.838-.832-.77-1.65-1.54-1.773-2.776-.028-.284-.168-.545-.167-.853.001-1.542.526-2.842 1.611-3.945.857-.87 1.936-1.321 3.004-1.824.64-.301 1.342-.372 1.985-.646.258-.11.553-.032.856-.146.485-.184 1.052-.17 1.586-.196.785-.039 1.551-.238 2.35-.185.802.052 1.612-.018 2.416.02.783.037 1.557.24 2.35.159.31.227.698.077 1.006.19.346.126.7.062 1.019.159 1.333.403 2.709.657 4 1.216.9.39 1.771.83 2.638 1.285.136.072.264.159.449.271-.366.506-.813.874-1.21 1.286-.405.422-.823.831-1.25 1.26-1.012-.395-2.005-.858-3.057-1.171-.77-.23-1.533-.472-2.318-.649-1.089-.245-2.19-.373-3.291-.533-1.266-.184-2.524-.167-3.77-.096-1.25.071-2.522.18-3.73.628-.83.307-1.227.526-2.094 1.396-.176.814-.176.814-.03 1.561.443.375.787.892 1.424 1.11.595.202 1.175.415 1.806.472.341.03.678.105 1.016.164.338.059.719-.156 1.02.163.025.028.107.008.162.003 1.319-.122 2.616.22 3.933.18.448-.014.897.123 1.349.15.47.028.97-.087 1.41.032.43.117.844.14 1.272.139.43-.002.845.134 1.26.2 1.25.2 2.507.443 3.674.98.633.292 1.265.588 1.841.997.977.692 1.53 1.655 1.841 2.782.077.279.135.566.164.852.028.277.033.561.001.837-.133 1.16-.44 2.233-1.171 3.204-.68.905-1.569 1.477-2.52 1.98a12.614 12.614 0 0 1-3.735 1.263c-.787.14-1.556.367-2.366.316-.566.298-1.176.146-1.766.161-.916.024-1.837-.04-2.75.018-1.156.074-2.296-.095-3.43-.21a18.657 18.657 0 0 1-2.634-.46c-.83-.208-1.66-.396-2.476-.67-1.411-.477-3.325-1.357-4.31-2.086-.133-.098-.238-.234-.33-.326M99.811 107.765c.762-.072 1.656.08 2.558-.142.554-.135 1.127-.236 1.692-.346 1.223-.236 2.29-.783 3.34-1.42.407-.247.657-.685 1.054-.879.632-.309.827-.96 1.275-1.403.2-.197.37-.46.459-.724.099-.3.193-.582.35-.864.145-.263.171-.608.19-.92.02-.323.095-.626.161-.939.156-.733-.081-1.465-.193-2.179-.172-1.094-1.203-2.67-2.038-3.415a7.695 7.695 0 0 0-.816-.65c-.607-.409-1.186-.911-1.855-1.158-.769-.284-1.534-.598-2.356-.776-.88-.191-1.757-.34-2.646-.437-.385-.041-.778-.006-1.167-.006-.416 0-.833-.003-1.25 0-.374.003-.732.04-1.105.141-.373.1-.782.105-1.178.176-.953.17-1.862.44-2.738.852-1.547.728-2.855 1.73-3.87 3.131a6.033 6.033 0 0 0-1.086 2.807 7.64 7.64 0 0 0 .085 2.448c.173.87.438 1.685.895 2.397.9 1.398 2.068 2.318 3.91 3.16 1.689.77 3.447 1.11 5.28 1.145.307.006.612 0 1.05 0m.046 3.52c-.323 0-.52-.021-.712.004-.906.12-1.801-.085-2.676-.21-.887-.127-1.833-.144-2.652-.62-.992-.03-1.862-.51-2.7-.924-1.022-.504-2.061-1.042-2.908-1.856-.35-.336-.77-.604-1.1-.957-.85-.911-1.585-1.907-2.072-3.072a10.86 10.86 0 0 1-.68-2.403 9.473 9.473 0 0 1-.135-2.028c.082-1.765.638-3.367 1.565-4.879.6-.977 1.388-1.76 2.216-2.496.718-.638 1.54-1.171 2.404-1.625.96-.503 1.941-.954 2.97-1.29a16.514 16.514 0 0 1 1.655-.434c.833-.178 1.687-.242 2.522-.377 1.099-.177 2.186-.144 3.27-.103.785.03 1.584.183 2.368.266.93.098 1.792.426 2.703.566.52.08 1.026.337 1.506.577.9.45 1.844.823 2.669 1.415.968.694 1.934 1.397 2.712 2.313.342.403.67.829.938 1.285.298.51.522 1.065.775 1.602.165.35.287.74.373 1.094.11.453.266.922.222 1.43-.063.72.001 1.451-.02 2.176-.032 1.065-.328 2.064-.767 3.03-.396.871-.868 1.682-1.533 2.379-1.655 1.734-2.12 2.208-4.652 3.449-.947.464-1.94.826-2.993 1.04-.985.2-1.97.36-2.959.52-.822.132-1.628.056-2.31.128M59.723 92.177v6.704h.848c4.58 0 9.16-.004 13.739.006.57.001 1.126-.04 1.68-.171.592-.141 1.142-.406 1.576-.806.486-.45.827-1.029.813-1.745-.006-.335 0-.67-.002-1.004-.003-.97-.54-1.843-1.424-2.32-.82-.444-1.614-.664-2.392-.664H59.723zm.002 18.423h-4.172V88.875l.255-.218h.768c6.084 0 12.167-.02 18.25.013 1.72.009 3.362.437 4.865 1.326 1.212.717 2.044 1.748 2.515 3.065.195.543.38 1.088.37 1.7-.005.322.149.664.145 1.02-.003.379-.252.7-.185 1.104.066.4-.231.748-.297 1.12-.067.383-.26.686-.42 1.002-.363.718-.97 1.244-1.606 1.71-.648.473-1.374.808-2.13 1.096-.269.102-.631-.092-.811.253-.505.056-1.01.104-1.514.169-2.638.34-5.288.119-7.931.158-2.667.038-5.334.008-8 .01-.025 0-.049.015-.102.034v8.163zM162.317 110.801c-.017-.424-.122-.727-.016-.891.223-.344.164-.697.131-1.031-.04-.425.183-.785.183-1.19 0-.418-.109-.877.027-1.246.172-.465.09-.912.142-1.365.045-.396.107-.791.165-1.187.054-.368-.144-.774.164-1.105.014-.015.006-.055.002-.082-.12-.827.2-1.623.168-2.444-.03-.765.284-1.505.166-2.277.245-.544.046-1.152.194-1.682.175-.63.086-1.245.153-1.875l.214-.215h7.415c-1.988 6.061-4.945 11.555-9.108 16.59M53.828 74.762h1.005v8.492h-1.085l-2.368-6.658v6.421l-.255.256h-.905v-8.51h1.553l1.965 5.678.09-.021v-5.658zM79.394 76.797v6.23l-.264.266h-.833c-.12-.688-.157-6.295-.055-8.52H79.8c.65 1.88 1.309 3.78 1.967 5.679l.094-.012V74.77h.985v8.505h-1.068L79.47 76.78l-.076.017M108.93 74.761h1.451l1.929 5.486c.003 0 .027.007.041-.002.022-.014.053-.039.053-.06.002-1.785.002-3.57.002-5.398h.96c.232.123.21.348.21.573-.004 1.563-.002 3.125-.002 4.688v2.994l-.249.25-.905.001c-.054-.143-.108-.315-.182-.478-.5-1.106-.773-2.296-1.267-3.407-.24-.54-.377-1.126-.568-1.688-.124-.367-.263-.728-.398-1.1-.004 0-.028-.01-.042-.003-.023.013-.056.038-.056.057-.003 2.177-.003 4.353-.003 6.575h-.974V74.76zM128.848 75.587c-.716.574-.954 1.331-.933 2.211.02.834.016 1.67 0 2.505-.015.878.24 1.622.924 2.135h.925c.21-.345.428-.703.58-.95.097-.482.243-.846.23-1.204-.037-1.035.104-2.067-.122-3.11-.137-.633-.333-1.157-.779-1.587h-.825zm2.74 3.373c0 .57.044 1.05-.008 1.518-.105.929-.374 1.81-1.077 2.474-.662.625-1.597.601-2.39.148-.618-.355-.754-.96-1.014-1.503-.157-.327-.11-.75-.21-1.086-.203-.683-.151-1.36-.122-2.03.045-1.051.205-2.085.81-3.005.361-.55 1.349-1.04 1.953-.872 1.006.279 1.644 1.09 1.91 2.175.188.765.105 1.52.149 2.18zM101.66 81.477c.094-.474.237-.839.224-1.198-.038-1.035.103-2.067-.123-3.11-.136-.633-.33-1.157-.778-1.58h-.819c-.748.532-.902 1.315-.929 2.13-.029.89-.042 1.783.004 2.671.042.802.183 1.595.93 2.046h.904l.587-.96m-1.955-6.73c.08 0 .256.055.35-.01.577-.39 1.09-.041 1.535.202.48.262.84.692.995 1.3.158.622.338 1.223.318 1.875-.022.696-.029 1.395.002 2.09.03.657-.174 1.272-.39 1.85a2.073 2.073 0 0 1-1.883 1.375c-.606.029-1.25-.149-1.653-.786-.457-.722-.716-1.33-.753-2.115-.02-.427-.178-.827-.184-1.27-.013-.952.16-1.874.37-2.784.157-.686.578-1.258 1.293-1.727M70.26 75.75l-.832 4.163h1.667l-.835-4.163m-.693-1.004h1.298c.108.316.263.649.333.998.25 1.23.471 2.465.828 3.672.087.295.037.623.165.937.126.311.08.69.195 1.008.112.312.075.65.178.93.118.32.156.614.124.97h-.916c-.226-.786-.298-1.652-.542-2.467H69.27l-.464 2.314-.153.153h-.94c.62-2.841 1.23-5.65 1.855-8.515M43.009 79.916c.065-.666-.25-1.3-.338-1.963-.09-.677-.264-1.343-.436-2.187l-.832 4.15h1.606zm1.719 3.355h-1.005l-.441-2.307-.179-.18H41.23l-.45 2.325-.167.168h-.932l1.86-8.511h1.324c.208.673.35 1.384.508 2.1.157.713.264 1.445.49 2.136.22.676.23 1.386.462 2.065.235.687.272 1.442.403 2.204zM30.171 76.059c.171-.655.686-.92 1.07-1.299.478.071.905-.365 1.404-.13.423.199.93.269 1.192.719.301.52.627 1.045.47 1.72h-.96c.1-.663-.307-1.088-.773-1.483h-.783l-.59.35v1.27c.526.519 1.088 1.042 1.758 1.475.555.36.958.957 1.302 1.318.155.462-.065.803.247 1.032-.078.358-.132.724-.24 1.073-.182.579-.57 1.018-1.146 1.178-1.048.29-1.728.112-2.336-.453-.541-.502-.76-1.116-.785-1.86h.944l.273.937.534.548h.996c.492-.43.91-.884.72-1.64-.35-.538-.776-1.032-1.375-1.394-.433-.262-.799-.644-1.174-.995-.51-.477-.817-1.05-.75-1.78.017-.194.002-.391.002-.586M91.056 83.278h-.998v-7.52h-1.641V74.8c-.013.014.003-.01.025-.026a.134.134 0 0 1 .07-.028l4.181-.001v.976c-.501.075-1.048-.007-1.637.05v7.506zM137.093 119.648h-.642v-4.45l.223-.223h.728c.24.989.487 1.997.771 3.16.242-1.16.419-2.18.74-3.146h.825v4.638h-.662v-2.81l-.082-.001-.62 2.836h-.389c-.394-.99-.49-2.09-.788-3.14-.006 0-.03-.012-.044-.005-.023.013-.057.038-.057.057-.003 1.006-.003 2.011-.003 3.084M120.72 83.275h-.904c-.224-.136-.244-.337-.242-.574.01-1.17.005-2.34.005-3.51v-4.207l.277-.223h.864v8.514zM177.056 116.315c-.14 1.097-.068 2.198-.105 3.323h-.452v-4.644h.802l.754 3.211.665-3.124c.144-.23.506-.076.819-.11.02.019.044.034.06.056.014.02.029.047.029.071v4.54h-.48v-3.449l-.102-.01-.772 3.458h-.481l-.737-3.322M212.018 119.648h-.671v-4.639h.846l.908 2.735c.119-.911.013-1.73.065-2.499.1-.109.16-.223.252-.264.092-.041.217-.01.367-.01v4.671h-.591l-1.176-3.266v3.272zM190.333 115.66v1.307c.426.043.814.047 1.11-.22v-.883l-.204-.205h-.906zm-.032 1.843v2.136h-.626v-4.454l.195-.196h1.31l.84.425.158 1.22c-.237.311-.262.734-.703.738.124.79.66 1.436.672 2.269h-.624c-.18-.602-.359-1.224-.555-1.84-.087-.276-.303-.365-.667-.298zM127.765 116.931c.455.122.808.044 1.142-.182v-.825l-.202-.252h-.94v1.26zm.016 2.717h-.671v-4.45l.225-.226c.35 0 .712.023 1.07-.007.378-.03.59.34.941.351l.236.46c0 .601.162 1.323-.662 1.632l.736 2.216h-.694c-.18-.617-.343-1.245-.551-1.858-.088-.257-.325-.349-.63-.245v2.127zM97.227 116.24l-.369-.564h-.78v3.442c.854-.05 1.03-.226 1.133-.989.08-.602.016-1.225.016-1.889m.463 2.708l-.697.7h-1.572v-4.595c1.33-.134 1.633-.37 2.482 1.192-.067.882.134 1.796-.213 2.703M88.387 116.86c.249-.364.466-.642.638-.946.163-.29.279-.607.43-.945l.69.036-.91 1.671c.317.949.765 1.904 1.045 2.967h-.699l-.777-2.324-.438.854v1.474h-.616v-4.707l.637.162v1.759zM118.475 115.503c-.374.27-.557.69-.553 1.148.007.846-.185 1.734.363 2.51.161 0 .297.004.432-.001.05-.002.1-.024.15-.037.373-.54.376-.54.378-1.006.002-.69 0-1.38 0-2.033-.215-.251-.21-.704-.77-.581m-.72-.306c.466-.229.873-.29 1.345-.14.525.166.524.682.812 1.041 0 .57-.03 1.185.008 1.795.047.736-.27 1.285-.679 1.703l-.681.212c-.16-.056-.447-.086-.635-.238a1.797 1.797 0 0 1-.503-.7c-.17-.418-.282-1.897-.167-2.347.114-.446.322-.867.5-1.326M113.09 116.954h.969l.364-.63c-.064-.125-.117-.243-.184-.353-.068-.114-.15-.22-.209-.304h-.94v1.287zm-.49-1.982c.36 0 .691-.026 1.018.007.308.031.61.124.891.185.555.485.36 1.118.41 1.746l-.628.507.754 2.213-.58.04c-.471-.665-.405-1.541-.944-2.166h-.444v2.146h-.477v-4.678zM168.578 116.983l.402-.673-.385-.643h-.934v1.316h.917zm-1.431-2.011c.355 0 .686-.026 1.012.007.31.031.612.123.895.184.554.482.362 1.115.41 1.747l-.626.504.744 2.2c.015-.025.004.011-.01.012-.185.018-.371.03-.562.045-.469-.663-.402-1.54-.942-2.166h-.443v2.144h-.478v-4.677zM122.265 115.836c.212-.267.446-.56.675-.85h1.055c.41.37.87.75.726 1.473h-.604v-.532c-.235-.185-.339-.497-.816-.435l-.253.493c-.377.84-.393 1.793-.054 2.837l.36.328c.228-.014.535.133.713-.302v-.835h-.46l-.03-.505h1.137v2.157c-.113 0-.222.015-.323-.005-.072-.015-.134-.078-.211-.126l-.666.337-.876-.422c-.509-1.048-.462-.706-.373-3.613M132.905 116.16c.18.568-.32 1.06-.097 1.665l.664-.031-.268-1.633h-.3zm1.594 3.488h-.677l-.253-1.291h-.928c-.06.145-.168.328-.21.524-.039.182-.008.379-.008.63l-.698.232c.162-1.625.636-3.075.907-4.563.196-.264.463-.234.733-.183.062.062.159.112.174.181.32 1.463.63 2.927.96 4.47zM163.132 116.954h.802l.374-.647-.383-.64h-.793v1.287zm-.656-1.962h1.395c.828.166.839.799 1.058 1.34l-.35.935c-.435.467-.937.38-1.436.386v1.979l-.667.038v-4.678zM109.13 116.983l.686-.494-.421-.822h-.783v1.316h.518zm-1.215 2.653v-4.664c.407 0 .814-.008 1.22.001.677.016.89.316 1.1.82.068.164.098.345.153.543-.242.452-.195 1.146-.906 1.317h-.884v1.983h-.683zM142.602 115.686v.555c.392.33.698.747 1.159 1.017.281.165.46.51.683.772-.05.395.01.75-.156 1.13-.199.453-.612.489-.942.649-.376.182-.642-.295-1.033-.326l-.468-1.12h.621l.487.806c.305-.031.578.092.784-.26.091-.301.057-.658-.233-1.06-.633-.407-1.39-.847-1.582-1.853l.407-.827c.398-.275.886-.202 1.319-.188l.577.58.216.722h-.644c.042-.358-.185-.607-.53-.84l-.665.243M100.418 119.463l-.429-1.108h.646l.393.765c.358.063.625.1.846-.194v-.904c-.346-.233-.736-.46-1.083-.74-.29-.232-.563-.504-.568-.934 0-.095-.076-.19-.116-.28l.312-.853c.405-.33.903-.231 1.374-.244.448.308.683.74.772 1.303h-.532l-.474-.774c-.48-.124-.614.21-.832.406-.048.546.408.806.735 1.014.475.304.808.685 1.096 1.169-.007.347.027.704-.142 1.081-.2.447-.61.508-.952.642-.363.142-.656-.261-1.046-.349M220.834 115.901v.301c.508.743 1.477.982 1.825 1.969-.03.255.027.61-.14.99-.199.451-.61.493-.942.648-.371.173-.646-.283-1.032-.333l-.425-1.113h.577l.482.796h.57l.243-.243v-.874c-.267-.208-.531-.5-.86-.652-.67-.308-.854-.827-.804-1.5.009-.11.002-.222.002-.332l.556-.56h1.055c.324.338.759.65.719 1.28h-.622c.014-.332-.183-.6-.48-.803-.383-.094-.514.24-.724.426M185.148 119.636V115h1.928l.477.282-.328.362h-1.398v1.319h1.118v.51h-1.125v1.684h1.633v.48h-2.305zM172.653 116.988h1.113v.483h-1.123v1.686h1.633v.48h-2.28v-4.643h2.094v.643h-1.437zM207.503 115.642v1.321h1.131l.023.513h-1.14v1.654c.5.082 1.047-.008 1.61.052v.444h-2.287v-4.62h2.147c0 .122-.005.229 0 .336.01.18.01.321-.25.306-.389-.023-.779-.006-1.234-.006M202.598 115l.623 2.974h.177c.198-.888.397-1.753.582-2.622.074-.348.292-.42.654-.361.04.817-.385 1.549-.482 2.34-.095.78-.385 1.514-.538 2.307h-.598l-1.092-4.637h.674zM198.311 117.518v1.617c.263.009.53.021.797.026.274.004.547.001.846.001v.465h-2.122v-4.62h2.183l-.165.613h-1.5v1.35h1.095v.481l-1.134.067M217.498 119.647h-.661v-3.99h-.747l-.263-.265v-.333c.017-.02.036-.057.055-.057.795-.003 1.59-.003 2.415-.003v.613l-.8.056v3.979zM182.158 114.925l.617.182v4.532l-.617.03v-4.744zM92.248 115.097l.62-.162v4.705l-.62.03v-4.573zM146.42 119.021v.617h-.628l-.03-.617h.658z"/>
        <g transform="translate(224.333 118.914)">
            <mask id="f" fill="#fff">
                <use xlink:href="#e"/>
            </mask>
            <path fill="#FFF" d="M.639.737h-.61V.108l.61-.033v.662z" mask="url(#f)"/>
        </g>
    </g>
</svg>
